Coordinates
version=1
nRows=20
nColumns=38
inDegrees=no

Units are S.I. units (second, meters, Newtons, ...)
If the header above contains a line with 'inDegrees', this indicates whether rotational values are in degrees (yes) or radians (no).

endheader
time	pelvis_tilt	pelvis_list	pelvis_rotation	pelvis_tx	pelvis_ty	pelvis_tz	hip_flexion_r	hip_adduction_r	hip_rotation_r	knee_angle_r	ankle_angle_r	subtalar_angle_r	mtp_angle_r	hip_flexion_l	hip_adduction_l	hip_rotation_l	knee_angle_l	ankle_angle_l	subtalar_angle_l	mtp_angle_l	lumbar_extension	lumbar_bending	lumbar_rotation	arm_flex_r	arm_add_r	arm_rot_r	elbow_flex_r	pro_sup_r	wrist_flex_r	wrist_dev_r	arm_flex_l	arm_add_l	arm_rot_l	elbow_flex_l	pro_sup_l	wrist_flex_l	wrist_dev_l
0	2.48774	1.45896	-0.804024	0.628905	-0.519125	0.914597	0.219766	0.0541623	-0.18612	0.284812	0.0080748	0	0	-0.0868808	-0.238105	-0.220163	1.01696	-0.259911	0	0	-0.233182	0.0337158	-0.192857	-0.135334	-0.223963	0.155573	0.536419	0.87816	0	0	-0.103233	-0.439785	0.207184	0.678707	1.19035	0	0
0.01	2.52993	1.45691	-0.85489	0.630428	-0.508416	0.91642	0.205743	0.0579321	-0.168138	0.292271	0.019304	0	0	-0.0598382	-0.236374	-0.211939	1.06464	-0.262915	0	0	-0.239238	0.0316038	-0.185289	-0.13849	-0.225374	0.150116	0.543279	0.879754	0	0	-0.104797	-0.438227	0.210047	0.679957	1.19019	0	0
0.02	2.56543	1.45492	-0.898152	0.631795	-0.497511	0.918306	0.190561	0.0611709	-0.152482	0.296643	0.0301173	0	0	-0.0314411	-0.235175	-0.203252	1.11584	-0.226737	0	0	-0.244095	0.029777	-0.17955	-0.142394	-0.227039	0.140956	0.551628	0.886956	0	0	-0.10746	-0.43574	0.210965	0.67975	1.18638	0	0
0.03	2.60605	1.45341	-0.946219	0.63309	-0.486699	0.92033	0.173223	0.0628945	-0.138492	0.296553	0.0387085	0	0	-0.00230954	-0.231695	-0.192545	1.16755	-0.169838	0	0	-0.248712	0.0264085	-0.175279	-0.143752	-0.228698	0.135084	0.55511	0.896668	0	0	-0.111246	-0.432933	0.208689	0.680854	1.18548	0	0
0.04	2.65013	1.45328	-0.997892	0.6344	-0.476017	0.922375	0.155477	0.0628253	-0.126178	0.293327	0.0462443	0	0	0.0279767	-0.225587	-0.182071	1.21495	-0.111146	0	0	-0.252034	0.0210213	-0.171207	-0.144419	-0.23003	0.129336	0.556315	0.907669	0	0	-0.11474	-0.430304	0.206366	0.681801	1.1886	0	0
0.05	2.69905	1.45384	-1.05423	0.635668	-0.465463	0.924474	0.136659	0.0612734	-0.115708	0.286562	0.0527832	0	0	0.0581642	-0.217688	-0.173169	1.25562	-0.0601457	0	0	-0.254617	0.0143193	-0.167459	-0.144342	-0.231313	0.125067	0.555414	0.917865	0	0	-0.117355	-0.427485	0.204153	0.680747	1.1908	0	0
0.06	2.75172	1.45437	-1.11399	0.636892	-0.455019	0.926603	0.116756	0.0588463	-0.107279	0.276998	0.0578138	0	0	0.0874196	-0.208867	-0.165993	1.28877	-0.0196349	0	0	-0.256965	0.00700373	-0.163713	-0.143994	-0.232375	0.121841	0.553136	0.926378	0	0	-0.119302	-0.424737	0.202581	0.679725	1.19341	0	0
0.07	2.80573	1.45478	-1.17509	0.638091	-0.444693	0.928653	0.097009	0.0556487	-0.100399	0.266977	0.0623774	0	0	0.115693	-0.19967	-0.160499	1.31467	0.0110663	0	0	-0.259169	-0.000532904	-0.159482	-0.143849	-0.233422	0.120196	0.550503	0.930827	0	0	-0.12056	-0.422385	0.202235	0.678691	1.19503	0	0
0.08	2.85621	1.45597	-1.23273	0.639268	-0.434539	0.930459	0.078913	0.0519609	-0.0939146	0.257075	0.0664946	0	0	0.144644	-0.190486	-0.156234	1.3351	0.0345773	0	0	-0.260209	-0.00796581	-0.154756	-0.143724	-0.234185	0.118719	0.547189	0.935415	0	0	-0.121023	-0.420156	0.202612	0.678413	1.19707	0	0
0.09	2.9067	1.45748	-1.29079	0.640431	-0.424488	0.932094	0.0611954	0.0478871	-0.0874292	0.246171	0.0701301	0	0	0.173015	-0.181599	-0.154611	1.34981	0.0526152	0	0	-0.260493	-0.0153818	-0.149515	-0.143267	-0.234731	0.11764	0.543143	0.939501	0	0	-0.121559	-0.418101	0.202734	0.679095	1.19847	0	0
0.1	2.9588	1.45904	-1.35082	0.64157	-0.414543	0.933607	0.0440693	0.0432899	-0.0818059	0.2351	0.0735196	0	0	0.200578	-0.172877	-0.15521	1.35886	0.0686892	0	0	-0.260414	-0.0228595	-0.143779	-0.14297	-0.235047	0.116469	0.539492	0.942734	0	0	-0.122069	-0.416325	0.203097	0.680753	1.1995	0	0
0.11	3.0113	1.46072	-1.41126	0.642621	-0.404672	0.934993	0.0279203	0.038302	-0.0762635	0.224369	0.0767577	0	0	0.227749	-0.163886	-0.156631	1.363	0.0860721	0	0	-0.259883	-0.0301188	-0.13759	-0.143804	-0.23535	0.114387	0.537727	0.945389	0	0	-0.122156	-0.414487	0.203194	0.68232	1.19969	0	0
0.12	3.06455	1.46216	-1.47295	0.643645	-0.394834	0.936254	0.0115837	0.0331518	-0.0697028	0.212924	0.0799131	0	0	0.253691	-0.155072	-0.159441	1.36219	0.104698	0	0	-0.259213	-0.037303	-0.130667	-0.145175	-0.235421	0.11136	0.536721	0.947905	0	0	-0.1219	-0.412596	0.203007	0.684004	1.19925	0	0
0.13	3.11566	1.46296	-1.53321	0.644674	-0.385039	0.937404	-0.0048119	0.0281265	-0.0625224	0.201732	0.0832423	0	0	0.277793	-0.147231	-0.164116	1.35624	0.122689	0	0	-0.258863	-0.0441843	-0.12307	-0.146784	-0.235506	0.107947	0.536727	0.950375	0	0	-0.121698	-0.410924	0.202777	0.686257	1.1982	0	0
0.14	-3.12049	1.4632	-1.58932	0.645651	-0.375308	0.938432	-0.0213998	0.023325	-0.0553419	0.190594	0.0864952	0	0	0.300205	-0.14017	-0.169644	1.345	0.136701	0	0	-0.258942	-0.0505935	-0.115409	-0.148447	-0.235727	0.105074	0.537583	0.952842	0	0	-0.121425	-0.409571	0.202518	0.689402	1.19656	0	0
0.15	-3.07778	1.46284	-1.64111	0.646621	-0.365619	0.939341	-0.0380342	0.0188464	-0.0477247	0.179866	0.089243	0	0	0.320473	-0.134141	-0.176528	1.32831	0.146608	0	0	-0.259434	-0.056659	-0.107581	-0.150076	-0.236207	0.103108	0.539148	0.95499	0	0	-0.120885	-0.408457	0.202063	0.692949	1.19494	0	0
0.16	-3.03818	1.46189	-1.68929	0.647507	-0.355996	0.940133	-0.0549852	0.0144257	-0.0401622	0.169177	0.0921442	0	0	0.3386	-0.128861	-0.184496	1.30649	0.15477	0	0	-0.260504	-0.0625225	-0.100333	-0.15149	-0.237035	0.102314	0.541349	0.956627	0	0	-0.120158	-0.4074	0.200531	0.695885	1.19332	0	0
0.17	-3.00252	1.46041	-1.73307	0.64836	-0.346364	0.940779	-0.072867	0.0100615	-0.0329904	0.157639	0.0953767	0	0	0.354484	-0.124696	-0.193956	1.28028	0.163209	0	0	-0.261976	-0.0682777	-0.0937324	-0.152927	-0.237885	0.101678	0.544208	0.957673	0	0	-0.119491	-0.406473	0.198217	0.698787	1.19213	0	0
0.18	-2.97298	1.45853	-1.7703	0.649198	-0.336721	0.94127	-0.0904315	0.00600249	-0.0266221	0.147468	0.0994353	0	0	0.368299	-0.121915	-0.204999	1.25042	0.172636	0	0	-0.263956	-0.0736574	-0.0879807	-0.154312	-0.238553	0.10021	0.547734	0.958104	0	0	-0.119296	-0.405857	0.195147	0.702007	1.19157	0	0
0.19	-2.94733	1.45671	-1.80311	0.650015	-0.327038	0.941563	-0.107439	0.00223373	-0.0208898	0.137982	0.103326	0	0	0.380268	-0.120353	-0.217885	1.21676	0.181393	0	0	-0.265861	-0.0788605	-0.0832414	-0.155529	-0.238877	0.0982558	0.551591	0.958536	0	0	-0.119529	-0.405343	0.190515	0.704163	1.19145	0	0
